STARTFONT 2.1
FONT -Adobe-Utopia-Bold-R-Normal--19-180-75-75-P-105-ISO8859-2
SIZE 18 75 75
FONTBOUNDINGBOX 26 18 -3 -4
STARTPROPERTIES 29
FOUNDRY "Adobe"
FAMILY_NAME "Utopia"
WEIGHT_NAME "Bold"
SLANT "R"
SETWIDTH_NAME "Normal"
ADD_STYLE_NAME ""
PIXEL_SIZE 19
POINT_SIZE 180
RESOLUTION_X 75
RESOLUTION_Y 75
SPACING "P"
AVERAGE_WIDTH 105
CHARSET_REGISTRY "ISO8859"
CHARSET_ENCODING "2"
CAP_HEIGHT 13
X_HEIGHT 9
RELATIVE_SETWIDTH 50
RELATIVE_WEIGHT 70
WEIGHT 218
FACE_NAME "Utopia Bold"
COPYRIGHT "Copyright (c) 1989, 1991 Adobe Systems Incorporated.  All rights reserved., Copyright 1996 Cub Soft"
NOTICE "Utopia is a registered trademark of Adobe Systems Incorporated."
DESTINATION 0
FONT_ASCENT 14
FONT_DESCENT 4
DEFAULT_CHAR 32
_ADOBE_PSFONT "Utopia-Bold"
_ADOBE_XFONT "-Adobe-Utopia-Bold-R-Normal--19-180-75-75-P-105-ISO8859-2"
_DEC_DEVICE_FONTNAMES "PS=Utopia-Bold"
ENDPROPERTIES
CHARS 191
STARTCHAR space
ENCODING 32
SWIDTH 210 0
DWIDTH 4 0
BBX 0 0 0 0
BITMAP
ENDCHAR
STARTCHAR exclam
ENCODING 33
SWIDTH 278 0
DWIDTH 5 0
BBX 4 13 0 0
BITMAP
60
f0
f0
f0
f0
60
60
60
60
00
60
f0
60
ENDCHAR
STARTCHAR quotedbl
ENCODING 34
SWIDTH 473 0
DWIDTH 9 0
BBX 5 6 2 7
BITMAP
d8
d8
d8
d8
d8
d8
ENDCHAR
STARTCHAR numbersign
ENCODING 35
SWIDTH 560 0
DWIDTH 11 0
BBX 10 12 0 1
BITMAP
1980
1980
1980
7fc0
3300
3300
3300
3300
ff80
6600
6600
6600
ENDCHAR
STARTCHAR dollar
ENCODING 36
SWIDTH 560 0
DWIDTH 11 0
BBX 10 15 0 -1
BITMAP
0400
3f80
77c0
e5c0
f400
fc00
7e00
3f80
0fc0
0bc0
09c0
e9c0
fb80
7f00
0800
ENDCHAR
STARTCHAR percent
ENCODING 37
SWIDTH 887 0
DWIDTH 17 0
BBX 16 13 0 0
BITMAP
7810
eff0
cc20
cc40
ccc0
dc80
791e
023b
0633
0433
0833
1837
101e
ENDCHAR
STARTCHAR ampersand
ENCODING 38
SWIDTH 748 0
DWIDTH 14 0
BBX 13 13 0 0
BITMAP
0f80
1dc0
38c0
38c0
1d80
1f18
3e38
7738
e3b0
e3e0
e1e0
71f0
3f78
ENDCHAR
STARTCHAR apostrophe
ENCODING 39
SWIDTH 252 0
DWIDTH 5 0
BBX 4 6 0 7
BITMAP
60
f0
70
60
c0
80
ENDCHAR
STARTCHAR parenleft
ENCODING 40
SWIDTH 365 0
DWIDTH 7 0
BBX 5 16 1 -3
BITMAP
18
38
70
70
e0
e0
e0
e0
e0
e0
e0
e0
70
70
38
18
ENDCHAR
STARTCHAR parenright
ENCODING 41
SWIDTH 365 0
DWIDTH 7 0
BBX 5 16 0 -3
BITMAP
c0
e0
70
70
38
38
38
38
38
38
38
38
70
70
e0
c0
ENDCHAR
STARTCHAR asterisk
ENCODING 42
SWIDTH 442 0
DWIDTH 8 0
BBX 7 7 0 6
BITMAP
10
d6
7c
38
7c
d6
10
ENDCHAR
STARTCHAR plus
ENCODING 43
SWIDTH 600 0
DWIDTH 11 0
BBX 10 10 0 0
BITMAP
0c00
0c00
0c00
0c00
ffc0
ffc0
0c00
0c00
0c00
0c00
ENDCHAR
STARTCHAR comma
ENCODING 44
SWIDTH 280 0
DWIDTH 5 0
BBX 4 6 0 -3
BITMAP
60
f0
70
60
c0
80
ENDCHAR
STARTCHAR minus
ENCODING 45
SWIDTH 600 0
DWIDTH 11 0
BBX 10 2 0 4
BITMAP
ffc0
ffc0
ENDCHAR
STARTCHAR period
ENCODING 46
SWIDTH 280 0
DWIDTH 5 0
BBX 4 3 0 0
BITMAP
60
f0
60
ENDCHAR
STARTCHAR slash
ENCODING 47
SWIDTH 378 0
DWIDTH 7 0
BBX 4 13 1 0
BITMAP
30
30
30
30
60
60
60
60
60
c0
c0
c0
c0
ENDCHAR
STARTCHAR zero
ENCODING 48
SWIDTH 560 0
DWIDTH 11 0
BBX 10 13 0 0
BITMAP
1e00
7380
7380
f3c0
f3c0
f3c0
f3c0
f3c0
f3c0
f3c0
7380
7380
1e00
ENDCHAR
STARTCHAR one
ENCODING 49
SWIDTH 560 0
DWIDTH 11 0
BBX 8 13 1 0
BITMAP
3c
fc
3c
3c
3c
3c
3c
3c
3c
3c
3c
3c
ff
ENDCHAR
STARTCHAR two
ENCODING 50
SWIDTH 560 0
DWIDTH 11 0
BBX 10 13 0 0
BITMAP
1f00
7380
f3c0
63c0
03c0
03c0
0380
0600
1800
7000
f040
ffc0
ffc0
ENDCHAR
STARTCHAR three
ENCODING 51
SWIDTH 560 0
DWIDTH 11 0
BBX 10 13 0 0
BITMAP
3f00
7380
f3c0
63c0
03c0
0780
3e00
0780
03c0
63c0
f3c0
7380
3f00
ENDCHAR
STARTCHAR four
ENCODING 52
SWIDTH 560 0
DWIDTH 11 0
BBX 10 14 0 0
BITMAP
0600
0f00
0f00
1e00
1c80
3980
3b80
7780
6780
c780
ffc0
0780
0780
1fc0
ENDCHAR
STARTCHAR five
ENCODING 53
SWIDTH 560 0
DWIDTH 11 0
BBX 10 13 0 0
BITMAP
7f80
7f80
7f00
4000
4000
7f00
4380
03c0
03c0
63c0
f3c0
7380
3f00
ENDCHAR
STARTCHAR six
ENCODING 54
SWIDTH 560 0
DWIDTH 11 0
BBX 10 13 0 0
BITMAP
1f80
7bc0
71c0
f080
f000
f700
fb80
f3c0
f3c0
f3c0
73c0
7b80
1f00
ENDCHAR
STARTCHAR seven
ENCODING 55
SWIDTH 560 0
DWIDTH 11 0
BBX 10 13 0 0
BITMAP
7fc0
7fc0
ffc0
8380
0300
0600
0600
0c00
1c00
1c00
3c00
3c00
1800
ENDCHAR
STARTCHAR eight
ENCODING 56
SWIDTH 560 0
DWIDTH 11 0
BBX 10 13 0 0
BITMAP
3f00
7380
f3c0
f3c0
f3c0
7380
3f00
7380
f3c0
f3c0
f3c0
7380
3f00
ENDCHAR
STARTCHAR nine
ENCODING 57
SWIDTH 560 0
DWIDTH 11 0
BBX 10 13 0 0
BITMAP
3e00
7780
f380
f3c0
f3c0
f3c0
77c0
3bc0
03c0
43c0
e380
f780
7e00
ENDCHAR
STARTCHAR colon
ENCODING 58
SWIDTH 280 0
DWIDTH 5 0
BBX 4 9 0 0
BITMAP
60
f0
60
00
00
00
60
f0
60
ENDCHAR
STARTCHAR semicolon
ENCODING 59
SWIDTH 280 0
DWIDTH 5 0
BBX 4 12 0 -3
BITMAP
60
f0
60
00
00
00
60
f0
70
60
c0
80
ENDCHAR
STARTCHAR less
ENCODING 60
SWIDTH 600 0
DWIDTH 11 0
BBX 10 10 0 0
BITMAP
00c0
03c0
0f00
3c00
f000
f000
3c00
0f00
03c0
00c0
ENDCHAR
STARTCHAR equal
ENCODING 61
SWIDTH 600 0
DWIDTH 11 0
BBX 10 6 0 2
BITMAP
ffc0
ffc0
0000
0000
ffc0
ffc0
ENDCHAR
STARTCHAR greater
ENCODING 62
SWIDTH 600 0
DWIDTH 11 0
BBX 10 10 0 0
BITMAP
c000
f000
3c00
0f00
03c0
03c0
0f00
3c00
f000
c000
ENDCHAR
STARTCHAR question
ENCODING 63
SWIDTH 456 0
DWIDTH 8 0
BBX 7 13 0 0
BITMAP
7c
ee
ce
0e
1c
38
70
60
38
00
30
78
30
ENDCHAR
STARTCHAR at
ENCODING 64
SWIDTH 833 0
DWIDTH 16 0
BBX 15 13 0 0
BITMAP
07f0
1c1c
3004
63f6
6732
c672
ce62
cce6
cd6c
ce78
6000
3830
0fe0
ENDCHAR
STARTCHAR A
ENCODING 65
SWIDTH 644 0
DWIDTH 12 0
BBX 12 13 0 0
BITMAP
0f00
0f00
0f00
1780
1780
1780
23c0
23c0
3fc0
41e0
41e0
41e0
e3f0
ENDCHAR
STARTCHAR B
ENCODING 66
SWIDTH 683 0
DWIDTH 13 0
BBX 12 13 0 0
BITMAP
ffc0
79e0
78f0
78f0
78f0
79e0
7fc0
79e0
78f0
78f0
78f0
79e0
ffc0
ENDCHAR
STARTCHAR C
ENCODING 67
SWIDTH 689 0
DWIDTH 13 0
BBX 12 13 0 0
BITMAP
0fe0
3870
7830
7010
f000
f000
f000
f000
f000
7010
7830
3870
0fe0
ENDCHAR
STARTCHAR D
ENCODING 68
SWIDTH 777 0
DWIDTH 14 0
BBX 13 13 0 0
BITMAP
ff80
78e0
7870
7870
7878
7878
7878
7878
7878
7870
7870
78e0
ff80
ENDCHAR
STARTCHAR E
ENCODING 69
SWIDTH 629 0
DWIDTH 12 0
BBX 11 13 0 0
BITMAP
ffc0
78c0
7840
7800
7880
7980
7f80
7980
7880
7820
7820
7860
ffe0
ENDCHAR
STARTCHAR F
ENCODING 70
SWIDTH 593 0
DWIDTH 11 0
BBX 10 13 0 0
BITMAP
ffc0
78c0
7840
7800
7880
7980
7f80
7980
7880
7800
7800
7800
fc00
ENDCHAR
STARTCHAR G
ENCODING 71
SWIDTH 726 0
DWIDTH 14 0
BBX 13 13 0 0
BITMAP
0fe0
3870
7830
7010
f000
f000
f000
f1f8
f0f0
70f0
78f0
38f0
0fe0
ENDCHAR
STARTCHAR H
ENCODING 72
SWIDTH 807 0
DWIDTH 15 0
BBX 14 13 0 0
BITMAP
fcfc
7878
7878
7878
7878
7878
7ff8
7878
7878
7878
7878
7878
fcfc
ENDCHAR
STARTCHAR I
ENCODING 73
SWIDTH 384 0
DWIDTH 7 0
BBX 6 13 0 0
BITMAP
fc
78
78
78
78
78
78
78
78
78
78
78
fc
ENDCHAR
STARTCHAR J
ENCODING 74
SWIDTH 386 0
DWIDTH 7 0
BBX 7 15 -1 -2
BITMAP
7e
3c
3c
3c
3c
3c
3c
3c
3c
3c
3c
3c
3c
38
e0
ENDCHAR
STARTCHAR K
ENCODING 75
SWIDTH 707 0
DWIDTH 13 0
BBX 14 13 0 0
BITMAP
fcf8
7860
78c0
7880
7900
7b00
7f80
7fc0
7bc0
79e0
78f0
78f8
fc7c
ENDCHAR
STARTCHAR L
ENCODING 76
SWIDTH 585 0
DWIDTH 11 0
BBX 10 13 0 0
BITMAP
fc00
7800
7800
7800
7800
7800
7800
7800
7800
7840
7840
78c0
ffc0
ENDCHAR
STARTCHAR M
ENCODING 77
SWIDTH 918 0
DWIDTH 17 0
BBX 16 13 0 0
BITMAP
f80f
780e
7c1e
7c1e
5e2e
5e2e
4f4e
4fce
478e
478e
430e
430e
e01f
ENDCHAR
STARTCHAR N
ENCODING 78
SWIDTH 739 0
DWIDTH 14 0
BBX 13 13 0 0
BITMAP
f038
7810
7c10
7c10
5e10
4f10
4f90
4790
43d0
41f0
41f0
40f0
e070
ENDCHAR
STARTCHAR O
ENCODING 79
SWIDTH 768 0
DWIDTH 14 0
BBX 13 13 0 0
BITMAP
0f80
38e0
78f0
7070
f078
f078
f078
f078
f078
7070
78f0
38e0
0f80
ENDCHAR
STARTCHAR P
ENCODING 80
SWIDTH 650 0
DWIDTH 12 0
BBX 12 13 0 0
BITMAP
ffc0
79e0
78f0
78f0
78f0
78f0
79e0
7fc0
7800
7800
7800
7800
fc00
ENDCHAR
STARTCHAR Q
ENCODING 81
SWIDTH 768 0
DWIDTH 14 0
BBX 13 17 0 -4
BITMAP
0f80
38e0
78f0
7070
f078
f078
f078
f078
f078
7070
78f0
38e0
0f80
0380
03c0
01e0
0078
ENDCHAR
STARTCHAR R
ENCODING 82
SWIDTH 684 0
DWIDTH 13 0
BBX 13 13 0 0
BITMAP
ffc0
79e0
78f0
78f0
78f0
79e0
7f80
7bc0
79c0
79e0
79e0
78f0
fc78
ENDCHAR
STARTCHAR S
ENCODING 83
SWIDTH 561 0
DWIDTH 11 0
BBX 10 13 0 0
BITMAP
3f00
7380
e180
e080
f800
fe00
7f80
1fc0
07c0
81c0
c1c0
e380
7f00
ENDCHAR
STARTCHAR T
ENCODING 84
SWIDTH 624 0
DWIDTH 12 0
BBX 10 13 1 0
BITMAP
ffc0
dec0
9e40
1e00
1e00
1e00
1e00
1e00
1e00
1e00
1e00
1e00
7f80
ENDCHAR
STARTCHAR U
ENCODING 85
SWIDTH 786 0
DWIDTH 14 0
BBX 13 13 0 0
BITMAP
fdf8
78f0
78f0
78f0
78f0
78f0
78f0
78f0
78f0
78f0
78f0
38e0
1fc0
ENDCHAR
STARTCHAR V
ENCODING 86
SWIDTH 645 0
DWIDTH 12 0
BBX 12 13 0 0
BITMAP
fc70
7820
7820
7820
3c40
3c40
3c40
1e80
1e80
1e80
0f00
0f00
0f00
ENDCHAR
STARTCHAR W
ENCODING 87
SWIDTH 933 0
DWIDTH 18 0
BBX 19 13 -1 0
BITMAP
fc78e0
787840
787840
78f880
3cbc80
3cbc80
3cbc80
3d3d00
1d1d00
1f1f00
1f1f00
1e1e00
0e0e00
ENDCHAR
STARTCHAR X
ENCODING 88
SWIDTH 634 0
DWIDTH 12 0
BBX 11 13 0 0
BITMAP
fde0
78c0
3c80
3d00
1f00
1e00
0f00
0f00
1780
1780
23c0
63c0
f7e0
ENDCHAR
STARTCHAR Y
ENCODING 89
SWIDTH 617 0
DWIDTH 12 0
BBX 13 13 -1 0
BITMAP
fc78
7830
7820
3c40
3c40
1e80
1e80
0f00
0f00
0f00
0f00
0f00
1f80
ENDCHAR
STARTCHAR Z
ENCODING 90
SWIDTH 614 0
DWIDTH 12 0
BBX 11 13 0 0
BITMAP
ffc0
c3c0
8780
8780
0f00
0f00
1e00
3c00
3c00
7800
7820
f060
ffe0
ENDCHAR
STARTCHAR bracketleft
ENCODING 91
SWIDTH 335 0
DWIDTH 6 0
BBX 4 16 1 -3
BITMAP
f0
e0
e0
e0
e0
e0
e0
e0
e0
e0
e0
e0
e0
e0
e0
f0
ENDCHAR
STARTCHAR backslash
ENCODING 92
SWIDTH 379 0
DWIDTH 7 0
BBX 4 13 1 0
BITMAP
c0
c0
c0
c0
60
60
60
60
60
30
30
30
30
ENDCHAR
STARTCHAR bracketright
ENCODING 93
SWIDTH 335 0
DWIDTH 6 0
BBX 4 16 1 -3
BITMAP
f0
70
70
70
70
70
70
70
70
70
70
70
70
70
70
f0
ENDCHAR
STARTCHAR asciicircum
ENCODING 94
SWIDTH 600 0
DWIDTH 11 0
BBX 10 10 0 3
BITMAP
0c00
0c00
1e00
1e00
3300
3300
6180
6180
c0c0
c0c0
ENDCHAR
STARTCHAR underscore
ENCODING 95
SWIDTH 500 0
DWIDTH 9 0
BBX 9 1 0 -3
BITMAP
ff80
ENDCHAR
STARTCHAR grave
ENCODING 96
SWIDTH 430 0
DWIDTH 8 0
BBX 5 3 1 10
BITMAP
e0
70
18
ENDCHAR
STARTCHAR a
ENCODING 97
SWIDTH 544 0
DWIDTH 10 0
BBX 9 9 0 0
BITMAP
7e00
ef00
c700
0f00
7700
e700
e700
ef00
7780
ENDCHAR
STARTCHAR b
ENCODING 98
SWIDTH 605 0
DWIDTH 11 0
BBX 11 14 -1 0
BITMAP
f000
7000
7000
7000
7000
7780
79c0
71e0
70e0
70e0
70e0
71e0
79c0
6f80
ENDCHAR
STARTCHAR c
ENCODING 99
SWIDTH 494 0
DWIDTH 9 0
BBX 8 9 0 0
BITMAP
1e
77
f3
e0
e0
e0
f1
73
1e
ENDCHAR
STARTCHAR d
ENCODING 100
SWIDTH 605 0
DWIDTH 11 0
BBX 11 14 0 0
BITMAP
03c0
01c0
01c0
01c0
01c0
3fc0
73c0
f1c0
e1c0
e1c0
e1c0
f1c0
73c0
3de0
ENDCHAR
STARTCHAR e
ENCODING 101
SWIDTH 519 0
DWIDTH 10 0
BBX 9 9 0 0
BITMAP
1e00
7380
f380
ff80
e000
e000
f080
7180
1f00
ENDCHAR
STARTCHAR f
ENCODING 102
SWIDTH 342 0
DWIDTH 7 0
BBX 7 14 0 0
BITMAP
3c
6e
66
70
70
fc
70
70
70
70
70
70
70
f8
ENDCHAR
STARTCHAR g
ENCODING 103
SWIDTH 533 0
DWIDTH 10 0
BBX 10 13 0 -4
BITMAP
3f80
7700
e380
e380
7700
3e00
7000
fe00
7f80
67c0
c1c0
e380
7f00
ENDCHAR
STARTCHAR h
ENCODING 104
SWIDTH 631 0
DWIDTH 12 0
BBX 11 14 0 0
BITMAP
f000
7000
7000
7000
7000
7780
7bc0
71c0
71c0
71c0
71c0
71c0
71c0
fbe0
ENDCHAR
STARTCHAR i
ENCODING 105
SWIDTH 316 0
DWIDTH 6 0
BBX 5 14 0 0
BITMAP
60
f0
60
00
00
f0
70
70
70
70
70
70
70
f8
ENDCHAR
STARTCHAR j
ENCODING 106
SWIDTH 316 0
DWIDTH 6 0
BBX 5 18 -1 -4
BITMAP
30
78
30
00
00
78
38
38
38
38
38
38
38
38
38
38
70
e0
ENDCHAR
STARTCHAR k
ENCODING 107
SWIDTH 582 0
DWIDTH 11 0
BBX 11 14 0 0
BITMAP
f000
7000
7000
7000
7000
71e0
7180
7300
7600
7f00
7700
7380
73c0
f9e0
ENDCHAR
STARTCHAR l
ENCODING 108
SWIDTH 309 0
DWIDTH 6 0
BBX 5 14 0 0
BITMAP
f0
70
70
70
70
70
70
70
70
70
70
70
70
f8
ENDCHAR
STARTCHAR m
ENCODING 109
SWIDTH 948 0
DWIDTH 18 0
BBX 17 9 0 0
BITMAP
f79e00
7bef00
71c700
71c700
71c700
71c700
71c700
71c700
fbef80
ENDCHAR
STARTCHAR n
ENCODING 110
SWIDTH 638 0
DWIDTH 12 0
BBX 11 9 0 0
BITMAP
f780
7bc0
71c0
71c0
71c0
71c0
71c0
71c0
fbe0
ENDCHAR
STARTCHAR o
ENCODING 111
SWIDTH 585 0
DWIDTH 11 0
BBX 10 9 0 0
BITMAP
1e00
7380
f3c0
e1c0
e1c0
e1c0
f3c0
7380
1e00
ENDCHAR
STARTCHAR p
ENCODING 112
SWIDTH 615 0
DWIDTH 12 0
BBX 11 13 0 -4
BITMAP
f780
79c0
71e0
70e0
70e0
70e0
71e0
79c0
7f80
7000
7000
7000
f800
ENDCHAR
STARTCHAR q
ENCODING 113
SWIDTH 597 0
DWIDTH 11 0
BBX 11 14 0 -4
BITMAP
0040
3ec0
73c0
f1c0
e1c0
e1c0
e1c0
f1c0
73c0
3dc0
01c0
01c0
01c0
07e0
ENDCHAR
STARTCHAR r
ENCODING 114
SWIDTH 440 0
DWIDTH 8 0
BBX 8 9 0 0
BITMAP
ee
7f
76
70
70
70
70
70
f8
ENDCHAR
STARTCHAR s
ENCODING 115
SWIDTH 446 0
DWIDTH 8 0
BBX 8 9 0 0
BITMAP
3e
66
e2
f8
7e
1f
87
c6
fc
ENDCHAR
STARTCHAR t
ENCODING 116
SWIDTH 370 0
DWIDTH 7 0
BBX 7 11 0 0
BITMAP
30
70
fc
70
70
70
70
70
70
7a
3c
ENDCHAR
STARTCHAR u
ENCODING 117
SWIDTH 629 0
DWIDTH 12 0
BBX 11 9 0 0
BITMAP
f3c0
71c0
71c0
71c0
71c0
71c0
71c0
7bc0
3de0
ENDCHAR
STARTCHAR v
ENCODING 118
SWIDTH 520 0
DWIDTH 10 0
BBX 9 9 0 0
BITMAP
fb80
7100
7100
7a00
3a00
3a00
1c00
1c00
1c00
ENDCHAR
STARTCHAR w
ENCODING 119
SWIDTH 774 0
DWIDTH 15 0
BBX 15 9 0 0
BITMAP
f9ce
71c4
71c4
3ae8
3ae8
3ae8
1c70
1c70
1c70
ENDCHAR
STARTCHAR x
ENCODING 120
SWIDTH 522 0
DWIDTH 10 0
BBX 9 9 0 0
BITMAP
fb80
7300
3a00
3c00
1c00
1e00
2e00
6700
ef80
ENDCHAR
STARTCHAR y
ENCODING 121
SWIDTH 524 0
DWIDTH 10 0
BBX 9 13 0 -4
BITMAP
fb80
7100
7100
3a00
3a00
1e00
1c00
1c00
0c00
0800
7000
f000
6000
ENDCHAR
STARTCHAR z
ENCODING 122
SWIDTH 483 0
DWIDTH 9 0
BBX 8 9 0 0
BITMAP
ff
cf
8e
1c
3c
38
71
f1
ff
ENDCHAR
STARTCHAR braceleft
ENCODING 123
SWIDTH 365 0
DWIDTH 7 0
BBX 6 16 0 -3
BITMAP
1c
38
38
38
38
38
30
e0
30
38
38
38
38
38
38
1c
ENDCHAR
STARTCHAR bar
ENCODING 124
SWIDTH 284 0
DWIDTH 5 0
BBX 2 13 1 0
BITMAP
c0
c0
c0
c0
c0
c0
c0
c0
c0
c0
c0
c0
c0
ENDCHAR
STARTCHAR braceright
ENCODING 125
SWIDTH 365 0
DWIDTH 7 0
BBX 6 16 0 -3
BITMAP
e0
70
70
70
70
70
30
1c
30
70
70
70
70
70
70
e0
ENDCHAR
STARTCHAR asciitilde
ENCODING 126
SWIDTH 600 0
DWIDTH 11 0
BBX 10 3 0 4
BITMAP
38c0
7f80
c700
ENDCHAR
STARTCHAR nobreakspace
ENCODING 160
SWIDTH 210 0
DWIDTH 4 0
BBX 0 0 0 0
BITMAP
ENDCHAR
STARTCHAR Aogonek
ENCODING 161
SWIDTH 644 0
DWIDTH 12 0
BBX 12 17 0 -4
BITMAP
0f00
0f00
0f00
1780
1780
1780
23c0
23c0
3fc0
41e0
41e0
41e0
e3f0
0600
0c00
0c00
0700
ENDCHAR
STARTCHAR breve
ENCODING 162
SWIDTH 430 0
DWIDTH 8 0
BBX 6 3 1 10
BITMAP
84
cc
78
ENDCHAR
STARTCHAR Lstroke
ENCODING 163
SWIDTH 591 0
DWIDTH 11 0
BBX 10 13 0 0
BITMAP
fc00
7800
7800
7800
7b00
7c00
7800
f800
7800
7840
7840
78c0
ffc0
ENDCHAR
STARTCHAR currency
ENCODING 164
SWIDTH 560 0
DWIDTH 11 0
BBX 9 10 1 2
BITMAP
dd80
ff80
6300
c180
c180
c180
c180
6300
ff80
dd80
ENDCHAR
STARTCHAR Lcaron
ENCODING 165
SWIDTH 640 0
DWIDTH 12 0
BBX 11 15 0 0
BITMAP
00c0
01e0
fce0
78c0
7980
7900
7800
7800
7800
7800
7800
7840
7840
78c0
ffc0
ENDCHAR
STARTCHAR Sacute
ENCODING 166
SWIDTH 561 0
DWIDTH 11 0
BBX 10 17 0 0
BITMAP
0380
0700
0c00
0000
3f00
7380
e180
e080
f800
fe00
7f80
1fc0
07c0
81c0
c1c0
e380
7f00
ENDCHAR
STARTCHAR section
ENCODING 167
SWIDTH 566 0
DWIDTH 11 0
BBX 9 15 1 -2
BITMAP
1e00
2300
3000
7800
9e00
8f00
c380
e180
7880
3c80
0f00
0700
2200
7200
3c00
ENDCHAR
STARTCHAR diaeresis
ENCODING 168
SWIDTH 430 0
DWIDTH 8 0
BBX 6 2 1 10
BITMAP
cc
cc
ENDCHAR
STARTCHAR Scaron
ENCODING 169
SWIDTH 561 0
DWIDTH 11 0
BBX 10 17 0 0
BITMAP
3300
1e00
0c00
0000
3f00
7380
e180
e080
f800
fe00
7f80
1fc0
07c0
81c0
c1c0
e380
7f00
ENDCHAR
STARTCHAR Scedilla
ENCODING 170
SWIDTH 561 0
DWIDTH 11 0
BBX 10 17 0 -4
BITMAP
3f00
7380
e180
e080
f800
fe00
7f80
1fc0
07c0
81c0
c1c0
e380
7f00
0400
0e00
0600
1c00
ENDCHAR
STARTCHAR Tcaron
ENCODING 171
SWIDTH 624 0
DWIDTH 12 0
BBX 10 17 1 0
BITMAP
3300
1e00
0c00
0000
ffc0
dec0
9e40
1e00
1e00
1e00
1e00
1e00
1e00
1e00
1e00
1e00
7f80
ENDCHAR
STARTCHAR Zacute
ENCODING 172
SWIDTH 614 0
DWIDTH 12 0
BBX 11 17 0 0
BITMAP
0380
0700
0c00
0000
ffc0
c3c0
8780
8780
0f00
0f00
1e00
3c00
3c00
7800
7820
f060
ffe0
ENDCHAR
STARTCHAR hyphen
ENCODING 173
SWIDTH 392 0
DWIDTH 7 0
BBX 5 2 1 4
BITMAP
f8
f8
ENDCHAR
STARTCHAR Zcaron
ENCODING 174
SWIDTH 614 0
DWIDTH 12 0
BBX 11 17 0 0
BITMAP
3300
1e00
0c00
0000
ffc0
c3c0
8780
8780
0f00
0f00
1e00
3c00
3c00
7800
7820
f060
ffe0
ENDCHAR
STARTCHAR Zabovedot
ENCODING 175
SWIDTH 614 0
DWIDTH 12 0
BBX 11 16 0 0
BITMAP
0c00
0c00
0000
ffc0
c3c0
8780
8780
0f00
0f00
1e00
3c00
3c00
7800
7820
f060
ffe0
ENDCHAR
STARTCHAR degree
ENCODING 176
SWIDTH 396 0
DWIDTH 8 0
BBX 6 6 1 7
BITMAP
78
cc
84
84
cc
78
ENDCHAR
STARTCHAR aogonek
ENCODING 177
SWIDTH 544 0
DWIDTH 10 0
BBX 9 13 0 -4
BITMAP
7e00
ef00
c700
0f00
7700
e700
e700
ef00
7780
0c00
1800
1800
0e00
ENDCHAR
STARTCHAR ogonek
ENCODING 178
SWIDTH 430 0
DWIDTH 8 0
BBX 4 4 2 -4
BITMAP
60
c0
c0
70
ENDCHAR
STARTCHAR lstroke
ENCODING 179
SWIDTH 321 0
DWIDTH 6 0
BBX 6 14 0 0
BITMAP
f0
70
70
70
74
78
70
70
f0
70
70
70
70
f8
ENDCHAR
STARTCHAR acute
ENCODING 180
SWIDTH 430 0
DWIDTH 8 0
BBX 5 3 1 10
BITMAP
38
70
c0
ENDCHAR
STARTCHAR lcaron
ENCODING 181
SWIDTH 533 0
DWIDTH 10 0
BBX 9 16 0 0
BITMAP
0300
0780
f380
7300
7600
7400
7000
7000
7000
7000
7000
7000
7000
7000
7000
f800
ENDCHAR
STARTCHAR sacute
ENCODING 182
SWIDTH 446 0
DWIDTH 8 0
BBX 8 13 0 0
BITMAP
07
0e
18
00
3e
66
e2
f8
7e
1f
87
c6
fc
ENDCHAR
STARTCHAR caron
ENCODING 183
SWIDTH 430 0
DWIDTH 8 0
BBX 6 3 1 10
BITMAP
cc
78
30
ENDCHAR
STARTCHAR cedilla
ENCODING 184
SWIDTH 430 0
DWIDTH 8 0
BBX 4 4 2 -4
BITMAP
20
70
30
e0
ENDCHAR
STARTCHAR scaron
ENCODING 185
SWIDTH 446 0
DWIDTH 8 0
BBX 8 13 0 0
BITMAP
66
3c
18
00
3e
66
e2
f8
7e
1f
87
c6
fc
ENDCHAR
STARTCHAR scedilla
ENCODING 186
SWIDTH 446 0
DWIDTH 8 0
BBX 8 13 0 -4
BITMAP
3e
66
e2
f8
7e
1f
87
c6
fc
08
1c
0c
38
ENDCHAR
STARTCHAR tcaron
ENCODING 187
SWIDTH 480 0
DWIDTH 9 0
BBX 9 16 0 0
BITMAP
0300
0780
0380
0300
0600
3400
7000
fc00
7000
7000
7000
7000
7000
7000
7a00
3c00
ENDCHAR
STARTCHAR zacute
ENCODING 188
SWIDTH 483 0
DWIDTH 9 0
BBX 8 13 0 0
BITMAP
07
0e
18
00
ff
cf
8e
1c
3c
38
71
f1
ff
ENDCHAR
STARTCHAR doubleacute
ENCODING 189
SWIDTH 430 0
DWIDTH 8 0
BBX 7 3 0 10
BITMAP
36
6c
d8
ENDCHAR
STARTCHAR zcaron
ENCODING 190
SWIDTH 483 0
DWIDTH 9 0
BBX 8 13 0 0
BITMAP
66
3c
18
00
ff
cf
8e
1c
3c
38
71
f1
ff
ENDCHAR
STARTCHAR zabovedot
ENCODING 191
SWIDTH 483 0
DWIDTH 9 0
BBX 8 12 0 0
BITMAP
18
18
00
ff
cf
8e
1c
3c
38
71
f1
ff
ENDCHAR
STARTCHAR Racute
ENCODING 192
SWIDTH 684 0
DWIDTH 13 0
BBX 13 17 0 0
BITMAP
01c0
0380
0600
0000
ffc0
79e0
78f0
78f0
78f0
79e0
7f80
7bc0
79c0
79e0
79e0
78f0
fc78
ENDCHAR
STARTCHAR Aacute
ENCODING 193
SWIDTH 644 0
DWIDTH 12 0
BBX 12 14 0 0
BITMAP
0380
0700
0c00
0000
0f00
0f00
1780
1780
23c0
3fc0
23c0
41e0
41e0
e3f0
ENDCHAR
STARTCHAR Acircumflex
ENCODING 194
SWIDTH 644 0
DWIDTH 12 0
BBX 12 14 0 0
BITMAP
0600
0f00
1980
0000
0f00
0f00
1780
1780
23c0
3fc0
23c0
41e0
41e0
e3f0
ENDCHAR
STARTCHAR Abreve
ENCODING 195
SWIDTH 644 0
DWIDTH 12 0
BBX 12 17 0 0
BITMAP
1080
1980
0f00
0000
0f00
0f00
0f00
1780
1780
1780
23c0
23c0
3fc0
41e0
41e0
41e0
e3f0
ENDCHAR
STARTCHAR Adiaeresis
ENCODING 196
SWIDTH 644 0
DWIDTH 12 0
BBX 12 13 0 0
BITMAP
1980
1980
0000
0f00
0f00
1780
1780
23c0
3fc0
23c0
41e0
41e0
e3f0
ENDCHAR
STARTCHAR Lacute
ENCODING 197
SWIDTH 585 0
DWIDTH 11 0
BBX 10 17 0 0
BITMAP
0e00
1c00
3000
0000
fc00
7800
7800
7800
7800
7800
7800
7800
7800
7840
7840
78c0
ffc0
ENDCHAR
STARTCHAR Cacute
ENCODING 198
SWIDTH 689 0
DWIDTH 13 0
BBX 12 17 0 0
BITMAP
00e0
01c0
0300
0000
0fe0
3870
7830
7010
f000
f000
f000
f000
f000
7010
7830
3870
0fe0
ENDCHAR
STARTCHAR Ccedilla
ENCODING 199
SWIDTH 689 0
DWIDTH 13 0
BBX 12 17 0 -4
BITMAP
0fe0
3870
7830
7010
f000
f000
f000
f000
f000
7010
7830
3870
0fe0
0200
0700
0300
0e00
ENDCHAR
STARTCHAR Ccaron
ENCODING 200
SWIDTH 689 0
DWIDTH 13 0
BBX 12 17 0 0
BITMAP
0cc0
0780
0300
0000
0fe0
3870
7830
7010
f000
f000
f000
f000
f000
7010
7830
3870
0fe0
ENDCHAR
STARTCHAR Eacute
ENCODING 201
SWIDTH 629 0
DWIDTH 12 0
BBX 11 14 0 0
BITMAP
0700
0e00
1800
0000
ffc0
7840
7800
7880
7f80
7880
7800
7820
7860
ffe0
ENDCHAR
STARTCHAR Eogonek
ENCODING 202
SWIDTH 629 0
DWIDTH 12 0
BBX 11 17 0 -4
BITMAP
ffc0
78c0
7840
7800
7880
7980
7f80
7980
7880
7820
7820
7860
ffe0
0600
0c00
0c00
0700
ENDCHAR
STARTCHAR Ediaeresis
ENCODING 203
SWIDTH 629 0
DWIDTH 12 0
BBX 11 13 0 0
BITMAP
3300
3300
0000
ffc0
7840
7800
7880
7f80
7880
7800
7820
7860
ffe0
ENDCHAR
STARTCHAR Ecaron
ENCODING 204
SWIDTH 629 0
DWIDTH 12 0
BBX 11 17 0 0
BITMAP
3300
1e00
0c00
0000
ffc0
78c0
7840
7800
7880
7980
7f80
7980
7880
7820
7820
7860
ffe0
ENDCHAR
STARTCHAR Iacute
ENCODING 205
SWIDTH 384 0
DWIDTH 7 0
BBX 6 14 0 0
BITMAP
1c
38
60
00
fc
78
78
78
78
78
78
78
78
fc
ENDCHAR
STARTCHAR Icircumflex
ENCODING 206
SWIDTH 384 0
DWIDTH 7 0
BBX 6 14 0 0
BITMAP
30
78
cc
00
fc
78
78
78
78
78
78
78
78
fc
ENDCHAR
STARTCHAR Dcaron
ENCODING 207
SWIDTH 777 0
DWIDTH 14 0
BBX 13 17 0 0
BITMAP
1980
0f00
0600
0000
ff80
78e0
7870
7870
7878
7878
7878
7878
7878
7870
7870
78e0
ff80
ENDCHAR
STARTCHAR Dstroke
ENCODING 208
SWIDTH 783 0
DWIDTH 14 0
BBX 13 13 0 0
BITMAP
ff80
78e0
7870
7870
7878
7878
fe78
7878
7878
7870
7870
78e0
ff80
ENDCHAR
STARTCHAR Nacute
ENCODING 209
SWIDTH 739 0
DWIDTH 14 0
BBX 13 17 0 0
BITMAP
00e0
01c0
0300
0000
f038
7810
7c10
7c10
5e10
4f10
4f90
4790
43d0
41f0
41f0
40f0
e070
ENDCHAR
STARTCHAR Ncaron
ENCODING 210
SWIDTH 739 0
DWIDTH 14 0
BBX 13 17 0 0
BITMAP
0cc0
0780
0300
0000
f038
7810
7c10
7c10
5e10
4f10
4f90
4790
43d0
41f0
41f0
40f0
e070
ENDCHAR
STARTCHAR Oacute
ENCODING 211
SWIDTH 768 0
DWIDTH 14 0
BBX 13 14 0 0
BITMAP
0380
0700
0c00
0000
0f80
38e0
78f0
7070
f078
f078
7070
78f0
38e0
0f80
ENDCHAR
STARTCHAR Ocircumflex
ENCODING 212
SWIDTH 768 0
DWIDTH 14 0
BBX 13 14 0 0
BITMAP
0600
0f00
1980
0000
0f80
38e0
78f0
7070
f078
f078
7070
78f0
38e0
0f80
ENDCHAR
STARTCHAR Odoubleacute
ENCODING 213
SWIDTH 768 0
DWIDTH 14 0
BBX 13 17 0 0
BITMAP
0360
06c0
0d80
0000
0f80
38e0
78f0
7070
f078
f078
f078
f078
f078
7070
78f0
38e0
0f80
ENDCHAR
STARTCHAR Odiaeresis
ENCODING 214
SWIDTH 768 0
DWIDTH 14 0
BBX 13 13 0 0
BITMAP
1980
1980
0000
0f80
38e0
78f0
7070
f078
f078
7070
78f0
38e0
0f80
ENDCHAR
STARTCHAR multiply
ENCODING 215
SWIDTH 600 0
DWIDTH 11 0
BBX 9 9 1 0
BITMAP
4100
e380
7700
3e00
1c00
3e00
7700
e380
4100
ENDCHAR
STARTCHAR Rcaron
ENCODING 216
SWIDTH 684 0
DWIDTH 13 0
BBX 13 17 0 0
BITMAP
1980
0f00
0600
0000
ffc0
79e0
78f0
78f0
78f0
79e0
7f80
7bc0
79c0
79e0
79e0
78f0
fc78
ENDCHAR
STARTCHAR Uring
ENCODING 217
SWIDTH 786 0
DWIDTH 14 0
BBX 13 18 0 0
BITMAP
0300
0480
0480
0300
0000
fdf8
78f0
78f0
78f0
78f0
78f0
78f0
78f0
78f0
78f0
78f0
38e0
1fc0
ENDCHAR
STARTCHAR Uacute
ENCODING 218
SWIDTH 786 0
DWIDTH 14 0
BBX 13 14 0 0
BITMAP
0380
0700
0c00
0000
fdf8
78f0
78f0
78f0
78f0
78f0
78f0
78f0
38e0
1fc0
ENDCHAR
STARTCHAR Udoubleacute
ENCODING 219
SWIDTH 786 0
DWIDTH 14 0
BBX 13 17 0 0
BITMAP
0360
06c0
0d80
0000
fdf8
78f0
78f0
78f0
78f0
78f0
78f0
78f0
78f0
78f0
78f0
38e0
1fc0
ENDCHAR
STARTCHAR Udiaeresis
ENCODING 220
SWIDTH 786 0
DWIDTH 14 0
BBX 13 13 0 0
BITMAP
0cc0
0cc0
0000
fdf8
78f0
78f0
78f0
78f0
78f0
78f0
78f0
38e0
1fc0
ENDCHAR
STARTCHAR Yacute
ENCODING 221
SWIDTH 617 0
DWIDTH 12 0
BBX 13 14 -1 0
BITMAP
00e0
01c0
0300
0000
fc78
7830
7820
3c40
1e80
1e80
0f00
0f00
0f00
1f80
ENDCHAR
STARTCHAR Tcedilla
ENCODING 222
SWIDTH 624 0
DWIDTH 12 0
BBX 10 17 1 -4
BITMAP
ffc0
dec0
9e40
1e00
1e00
1e00
1e00
1e00
1e00
1e00
1e00
1e00
7f80
0400
0e00
0600
1c00
ENDCHAR
STARTCHAR ssharp
ENCODING 223
SWIDTH 662 0
DWIDTH 12 0
BBX 12 14 0 0
BITMAP
1f00
3980
71c0
71c0
7180
7300
7700
7780
77c0
73e0
71f0
70f0
76e0
f3c0
ENDCHAR
STARTCHAR racute
ENCODING 224
SWIDTH 440 0
DWIDTH 8 0
BBX 8 13 0 0
BITMAP
07
0e
18
00
ee
7f
76
70
70
70
70
70
f8
ENDCHAR
STARTCHAR aacute
ENCODING 225
SWIDTH 544 0
DWIDTH 10 0
BBX 9 13 0 0
BITMAP
0e00
1c00
3000
0000
7e00
ef00
c700
0f00
7700
e700
e700
ef00
7780
ENDCHAR
STARTCHAR acircumflex
ENCODING 226
SWIDTH 544 0
DWIDTH 10 0
BBX 9 13 0 0
BITMAP
1800
3c00
6600
0000
7e00
ef00
c700
0f00
7700
e700
e700
ef00
7780
ENDCHAR
STARTCHAR abreve
ENCODING 227
SWIDTH 544 0
DWIDTH 10 0
BBX 9 13 0 0
BITMAP
4200
6600
3c00
0000
7e00
ef00
c700
0f00
7700
e700
e700
ef00
7780
ENDCHAR
STARTCHAR adiaeresis
ENCODING 228
SWIDTH 544 0
DWIDTH 10 0
BBX 9 12 0 0
BITMAP
6600
6600
0000
7e00
ef00
c700
0f00
7700
e700
e700
ef00
7780
ENDCHAR
STARTCHAR lacute
ENCODING 229
SWIDTH 309 0
DWIDTH 6 0
BBX 6 18 0 0
BITMAP
1c
38
60
00
f0
70
70
70
70
70
70
70
70
70
70
70
70
f8
ENDCHAR
STARTCHAR cacute
ENCODING 230
SWIDTH 494 0
DWIDTH 9 0
BBX 9 13 0 0
BITMAP
0380
0700
0c00
0000
1e00
7700
f300
e000
e000
e000
f100
7300
1e00
ENDCHAR
STARTCHAR ccedilla
ENCODING 231
SWIDTH 494 0
DWIDTH 9 0
BBX 8 13 0 -4
BITMAP
1e
77
f3
e0
e0
e0
f1
73
1e
08
1c
0c
38
ENDCHAR
STARTCHAR ccaron
ENCODING 232
SWIDTH 494 0
DWIDTH 9 0
BBX 8 13 0 0
BITMAP
33
1e
0c
00
1e
77
f3
e0
e0
e0
f1
73
1e
ENDCHAR
STARTCHAR eacute
ENCODING 233
SWIDTH 519 0
DWIDTH 10 0
BBX 9 13 0 0
BITMAP
0e00
1c00
3000
0000
1e00
7380
f380
ff80
e000
e000
f080
7180
1f00
ENDCHAR
STARTCHAR eogonek
ENCODING 234
SWIDTH 519 0
DWIDTH 10 0
BBX 9 13 0 -4
BITMAP
1e00
7380
f380
ff80
e000
e000
f080
7180
1f00
0c00
1800
1800
0e00
ENDCHAR
STARTCHAR ediaeresis
ENCODING 235
SWIDTH 519 0
DWIDTH 10 0
BBX 9 12 0 0
BITMAP
6600
6600
0000
1e00
7380
f380
ff80
e000
e000
f080
7180
1f00
ENDCHAR
STARTCHAR ecaron
ENCODING 236
SWIDTH 519 0
DWIDTH 10 0
BBX 9 13 0 0
BITMAP
3300
1e00
0c00
0000
1e00
7380
f380
ff80
e000
e000
f080
7180
1f00
ENDCHAR
STARTCHAR iacute
ENCODING 237
SWIDTH 316 0
DWIDTH 6 0
BBX 5 13 0 0
BITMAP
38
70
c0
00
f0
70
70
70
70
70
70
70
f8
ENDCHAR
STARTCHAR icircumflex
ENCODING 238
SWIDTH 316 0
DWIDTH 6 0
BBX 6 13 -1 0
BITMAP
30
78
cc
00
78
38
38
38
38
38
38
38
7c
ENDCHAR
STARTCHAR dcaron
ENCODING 239
SWIDTH 800 0
DWIDTH 15 0
BBX 15 16 0 0
BITMAP
000c
001e
03ce
01cc
01d8
01d0
01c0
3fc0
73c0
f1c0
e1c0
e1c0
e1c0
f1c0
73c0
3de0
ENDCHAR
STARTCHAR dstroke
ENCODING 240
SWIDTH 746 0
DWIDTH 14 0
BBX 14 14 0 0
BITMAP
03c0
01c0
1ffc
01c0
01c0
3fc0
73c0
f1c0
e1c0
e1c0
e1c0
f1c0
73c0
3de0
ENDCHAR
STARTCHAR nacute
ENCODING 241
SWIDTH 638 0
DWIDTH 12 0
BBX 11 13 0 0
BITMAP
0380
0700
0c00
0000
f780
7bc0
71c0
71c0
71c0
71c0
71c0
71c0
fbe0
ENDCHAR
STARTCHAR ncaron
ENCODING 242
SWIDTH 638 0
DWIDTH 12 0
BBX 11 13 0 0
BITMAP
3300
1e00
0c00
0000
f780
7bc0
71c0
71c0
71c0
71c0
71c0
71c0
fbe0
ENDCHAR
STARTCHAR oacute
ENCODING 243
SWIDTH 585 0
DWIDTH 11 0
BBX 10 13 0 0
BITMAP
0e00
1c00
3000
0000
1e00
7380
f3c0
e1c0
e1c0
e1c0
f3c0
7380
1e00
ENDCHAR
STARTCHAR ocircumflex
ENCODING 244
SWIDTH 585 0
DWIDTH 11 0
BBX 10 13 0 0
BITMAP
0c00
1e00
3300
0000
1e00
7380
f3c0
e1c0
e1c0
e1c0
f3c0
7380
1e00
ENDCHAR
STARTCHAR odoubleacute
ENCODING 245
SWIDTH 585 0
DWIDTH 11 0
BBX 10 13 0 0
BITMAP
0d80
1b00
3600
0000
1e00
7380
f3c0
e1c0
e1c0
e1c0
f3c0
7380
1e00
ENDCHAR
STARTCHAR odiaeresis
ENCODING 246
SWIDTH 585 0
DWIDTH 11 0
BBX 10 12 0 0
BITMAP
3300
3300
0000
1e00
7380
f3c0
e1c0
e1c0
e1c0
f3c0
7380
1e00
ENDCHAR
STARTCHAR division
ENCODING 247
SWIDTH 600 0
DWIDTH 11 0
BBX 10 8 0 1
BITMAP
0c00
0c00
0000
ffc0
ffc0
0000
0c00
0c00
ENDCHAR
STARTCHAR rcaron
ENCODING 248
SWIDTH 440 0
DWIDTH 8 0
BBX 8 13 0 0
BITMAP
66
3c
18
00
ee
7f
76
70
70
70
70
70
f8
ENDCHAR
STARTCHAR uring
ENCODING 249
SWIDTH 629 0
DWIDTH 12 0
BBX 11 14 0 0
BITMAP
0c00
1200
1200
0c00
0000
f3c0
71c0
71c0
71c0
71c0
71c0
71c0
7bc0
3de0
ENDCHAR
STARTCHAR uacute
ENCODING 250
SWIDTH 629 0
DWIDTH 12 0
BBX 11 13 0 0
BITMAP
0700
0e00
1800
0000
f3c0
71c0
71c0
71c0
71c0
71c0
71c0
7bc0
3de0
ENDCHAR
STARTCHAR udoubleacute
ENCODING 251
SWIDTH 629 0
DWIDTH 12 0
BBX 11 13 0 0
BITMAP
0d80
1b00
3600
0000
f3c0
71c0
71c0
71c0
71c0
71c0
71c0
7bc0
3de0
ENDCHAR
STARTCHAR udiaeresis
ENCODING 252
SWIDTH 629 0
DWIDTH 12 0
BBX 11 12 0 0
BITMAP
3300
3300
0000
f3c0
71c0
71c0
71c0
71c0
71c0
71c0
7bc0
3de0
ENDCHAR
STARTCHAR yacute
ENCODING 253
SWIDTH 524 0
DWIDTH 10 0
BBX 9 17 0 -4
BITMAP
0700
0e00
1800
0000
fb80
7100
7100
3a00
3a00
1e00
1c00
1c00
0c00
0800
7000
f000
6000
ENDCHAR
STARTCHAR tcedilla
ENCODING 254
SWIDTH 370 0
DWIDTH 7 0
BBX 7 15 0 -4
BITMAP
30
70
fc
70
70
70
70
70
70
7a
3c
08
1c
0c
38
ENDCHAR
STARTCHAR abovedot
ENCODING 255
SWIDTH 430 0
DWIDTH 8 0
BBX 2 2 3 10
BITMAP
c0
c0
ENDCHAR
ENDFONT
